<?xml version="1.0" standalone="no"?>
<!DOCTYPE svg PUBLIC "-//W3C//DTD SVG 20010904//EN"
 "http://www.w3.org/TR/2001/REC-SVG-20010904/DTD/svg10.dtd">
<svg version="1.0" xmlns="http://www.w3.org/2000/svg"
 width="2155.000000pt" height="991.000000pt" viewBox="0 0 2155.000000 991.000000"
 preserveAspectRatio="xMidYMid meet">
<metadata>
Created by potrace 1.10, written by Peter Selinger 2001-2011
</metadata>
<g transform="translate(0.000000,991.000000) scale(0.100000,-0.100000)"
fill="#000000" stroke="none">
<path d="M960 9578 c-197 -21 -357 -113 -450 -258 -16 -25 -50 -61 -75 -79
-57 -41 -118 -122 -139 -184 -19 -56 -19 -69 -5 -121 l11 -39 23 57 c13 31 39
77 60 101 40 50 38 56 -8 23 -17 -12 -37 -23 -43 -24 -13 -2 -7 33 7 42 5 3 9
15 10 27 0 12 3 17 5 10 3 -7 26 10 54 39 27 28 47 55 44 60 -3 4 1 8 9 8 8 0
27 16 42 36 34 44 119 86 235 115 91 23 123 39 75 39 -37 -1 -94 -13 -159 -34
l-50 -16 25 26 c32 34 128 87 209 115 57 20 85 23 220 23 170 0 220 -9 340
-67 75 -36 178 -133 205 -193 10 -22 24 -53 31 -71 24 -54 46 -194 40 -253
-21 -203 -95 -338 -239 -431 -167 -108 -470 -126 -670 -40 -26 11 -49 21 -52
21 -3 1 -20 7 -39 15 -46 20 -53 19 -32 -4 24 -26 129 -76 206 -97 91 -26 338
-26 430 -1 216 58 362 202 411 407 19 78 16 260 -4 339 -21 79 -68 168 -119
225 -123 140 -359 211 -608 184z"/>
<path d="M1730 8993 l0 -578 160 0 160 0 0 148 0 147 200 0 c239 0 301 12 393
74 110 74 167 195 167 350 0 144 -39 246 -126 326 -105 97 -177 110 -611 110
l-343 0 0 -577z m740 532 c116 -22 216 -89 259 -173 43 -85 57 -207 37 -322
-20 -108 -104 -212 -203 -249 -80 -30 -141 -38 -263 -34 -58 2 -138 1 -178 -2
-96 -9 -104 -20 -103 -149 1 -52 -3 -106 -9 -120 -9 -26 -10 -26 -119 -26 -98
0 -111 2 -120 19 -10 19 -13 975 -3 1033 2 15 12 29 21 31 24 7 640 -1 681 -8z"/>
<path d="M2059 9302 l-34 -17 -5 -95 c-6 -121 0 -184 22 -210 16 -18 30 -20
170 -20 84 0 173 5 198 11 87 20 125 84 115 194 -12 121 -54 145 -274 150
-134 4 -163 2 -192 -13z m402 -60 c26 -29 29 -40 29 -97 0 -134 -22 -147 -262
-153 l-178 -5 0 147 0 148 191 -4 191 -3 29 -33z"/>
<path d="M2661 9531 c8 -11 104 -136 213 -278 110 -142 201 -265 203 -273 2
-8 -89 -135 -205 -287 -116 -149 -213 -276 -216 -282 -5 -8 54 -11 202 -11
l209 0 134 190 c74 105 137 190 141 190 5 0 71 -85 149 -190 l141 -190 209 0
c116 0 208 3 205 8 -2 4 -99 129 -215 277 -116 149 -211 276 -211 283 0 9 280
387 423 570 7 9 -34 12 -201 12 l-211 0 -128 -185 c-77 -111 -135 -184 -145
-185 -10 0 -69 71 -154 185 l-138 185 -209 0 c-205 0 -209 0 -196 -19z m385
-25 c6 -3 59 -69 118 -148 129 -174 160 -208 189 -208 35 1 58 25 177 193 61
86 119 161 128 166 20 9 298 9 307 -1 6 -5 -45 -79 -108 -158 -7 -8 -60 -78
-117 -155 -58 -77 -111 -146 -118 -154 -17 -17 -32 -56 -32 -81 0 -17 90 -139
288 -394 46 -59 81 -113 79 -120 -8 -19 -274 -20 -303 -1 -13 8 -48 49 -80 92
-31 43 -85 115 -118 160 -71 95 -107 120 -143 96 -12 -8 -75 -89 -139 -179
-64 -90 -121 -167 -127 -171 -17 -11 -269 -16 -295 -6 -23 9 -22 11 40 92 35
46 74 98 88 117 14 19 69 91 123 161 54 71 100 139 104 152 3 13 -1 37 -10 55
-15 29 -139 193 -285 375 -82 102 -87 111 -73 120 11 7 287 4 307 -3z"/>
<path d="M844 9358 l7 -54 -63 -18 c-82 -23 -211 -83 -292 -137 l-64 -43 -4
-57 c-3 -41 -12 -69 -35 -105 -38 -60 -56 -123 -47 -169 7 -38 24 -58 24 -28
0 10 11 38 25 62 27 47 30 55 15 46 -6 -3 -10 -1 -10 6 0 8 -4 8 -15 -1 -18
-15 -19 -3 -2 33 7 15 18 25 25 22 9 -3 11 1 7 15 -4 13 -2 20 5 18 7 -2 14
10 15 26 2 16 14 40 27 54 53 57 267 177 285 159 3 -4 8 -29 11 -56 l4 -49
-98 -51 c-58 -29 -126 -75 -165 -109 l-66 -58 14 -47 c13 -45 13 -48 -14 -89
-38 -59 -40 -147 -4 -197 30 -42 107 -78 189 -89 66 -9 68 -8 52 33 -9 24 -11
25 -26 10 -9 -8 -24 -14 -33 -11 -9 3 -35 10 -59 16 -54 14 -102 60 -102 97 1
15 11 41 25 57 21 26 26 28 40 16 15 -12 16 -12 13 5 -2 12 12 29 42 52 25 18
50 37 56 42 18 15 112 61 124 61 5 0 10 -7 10 -15 0 -21 56 -82 92 -99 54 -28
145 -39 251 -33 128 8 163 18 215 62 60 52 82 119 82 246 0 194 -42 272 -169
311 -45 14 -83 17 -186 14 -71 -2 -143 -8 -160 -12 -27 -6 -29 -5 -17 9 10 12
11 24 2 56 -17 64 -34 64 -26 -1z m343 -89 c72 -13 119 -40 145 -85 28 -48 43
-180 31 -267 -14 -101 -36 -142 -92 -175 -45 -26 -50 -27 -206 -27 -150 0
-163 1 -201 24 -42 24 -84 83 -84 118 0 16 17 26 88 49 48 16 90 31 94 34 4 3
1 25 -6 50 -16 53 -27 55 -121 19 -70 -26 -60 -38 12 -14 31 11 49 13 51 6 2
-6 10 -11 18 -11 43 0 -21 -61 -77 -74 -15 -3 -45 -21 -68 -38 -22 -18 -80
-55 -128 -83 -55 -31 -115 -76 -160 -121 -54 -53 -73 -67 -73 -52 0 21 28 80
42 89 5 3 9 9 9 13 -3 24 0 30 9 16 8 -11 9 -9 5 10 -5 20 2 34 32 64 43 44
164 126 224 152 37 17 39 20 40 63 3 192 64 246 283 250 38 0 98 -4 133 -10z
m-390 -31 c-19 -25 -31 -32 -53 -30 -34 4 -110 -28 -196 -84 -64 -41 -78 -45
-60 -18 19 29 283 164 321 164 9 0 5 -11 -12 -32z m-67 -227 c0 -5 -47 -39
-105 -76 -58 -37 -105 -70 -105 -73 0 -4 -9 -13 -19 -19 -35 -22 -34 15 2 51
29 30 139 104 177 119 23 9 50 8 50 -2z"/>
<path d="M569 8593 c6 -13 20 -27 31 -33 27 -15 25 -10 -12 25 -25 24 -29 25
-19 8z"/>
<path d="M662 8263 c-54 -46 -24 -123 48 -123 29 0 43 6 54 22 24 34 20 73
-10 97 -33 26 -65 27 -92 4z m76 -25 c21 -21 14 -57 -13 -70 -22 -10 -29 -9
-47 10 -19 18 -20 25 -10 47 13 27 49 34 70 13z"/>
<path d="M925 8260 c-23 -25 -13 -48 25 -62 37 -12 34 -33 -3 -33 -41 0 -37
-20 5 -23 63 -5 77 56 17 77 -34 12 -39 34 -6 30 31 -4 54 10 36 22 -23 15
-55 10 -74 -11z"/>
<path d="M1166 8259 c-52 -41 -24 -119 43 -119 46 0 74 27 74 72 0 60 -66 87
-117 47z m86 -34 c10 -22 9 -29 -10 -47 -18 -19 -25 -20 -47 -10 -16 8 -25 20
-25 35 0 50 62 66 82 22z"/>
<path d="M1428 8207 c-2 -49 0 -67 10 -67 6 0 12 11 12 25 0 21 5 25 30 25 20
0 30 5 30 15 0 10 -10 15 -30 15 -20 0 -30 5 -30 15 0 11 11 15 36 15 24 0 34
4 32 12 -3 7 -22 13 -46 13 l-41 0 -3 -68z"/>
<path d="M1640 8263 c0 -7 9 -13 20 -13 18 0 20 -7 20 -55 0 -42 3 -55 15 -55
12 0 15 13 15 55 0 48 2 55 20 55 11 0 20 6 20 13 0 8 -18 12 -55 12 -37 0
-55 -4 -55 -12z"/>
<path d="M1880 8208 c0 -54 3 -68 15 -68 9 0 15 9 15 23 0 17 8 25 33 32 27 8
32 15 32 40 0 28 -3 30 -47 35 l-48 6 0 -68z m70 27 c0 -8 -9 -15 -20 -15 -11
0 -20 7 -20 15 0 8 9 15 20 15 11 0 20 -7 20 -15z"/>
<path d="M2123 8210 c-29 -65 -30 -70 -12 -70 10 0 19 7 19 15 0 10 10 15 30
15 18 0 33 -6 36 -15 6 -14 34 -22 34 -10 0 15 -60 135 -67 135 -5 0 -23 -31
-40 -70z m57 -12 c0 -5 -7 -8 -15 -8 -15 0 -20 21 -8 33 7 7 23 -11 23 -25z"/>
<path d="M2340 8272 c0 -4 11 -24 25 -44 18 -27 24 -45 19 -63 -5 -19 -2 -25
10 -25 11 0 16 9 16 28 0 15 11 44 25 64 29 43 30 48 10 48 -9 0 -21 -11 -27
-25 -6 -14 -14 -25 -18 -25 -4 0 -12 11 -18 25 -11 23 -42 36 -42 17z"/>
<path d="M2650 8208 l0 -68 50 0 c40 0 50 3 50 16 0 13 -7 15 -35 11 -30 -5
-35 -3 -35 15 0 17 5 20 30 16 20 -3 30 0 30 9 0 8 -12 13 -30 13 -20 0 -30 5
-30 15 0 10 10 15 30 15 18 0 30 5 30 13 0 8 -15 12 -45 12 l-45 0 0 -67z"/>
<path d="M2896 8264 c-24 -24 -16 -47 22 -63 38 -17 37 -36 -1 -36 -15 0 -27
-4 -27 -10 0 -5 17 -10 38 -10 34 0 37 2 40 31 3 27 -1 33 -27 42 -39 14 -41
35 -3 30 19 -2 27 2 27 12 0 21 -49 25 -69 4z"/>
<path d="M3136 8259 c-52 -41 -24 -119 43 -119 43 0 55 8 40 26 -8 10 -15 10
-29 2 -14 -9 -22 -9 -34 1 -35 29 -8 89 34 78 24 -6 38 12 19 24 -22 14 -44
10 -73 -12z"/>
<path d="M3370 8208 c0 -51 3 -68 14 -68 9 0 12 8 9 24 -7 36 14 41 32 6 8
-16 22 -30 30 -30 19 0 19 5 -1 35 -9 14 -12 25 -6 25 14 0 24 29 17 50 -4 13
-19 19 -50 22 l-45 3 0 -67z m70 27 c0 -9 -9 -15 -25 -15 -16 0 -25 6 -25 15
0 9 9 15 25 15 16 0 25 -6 25 -15z"/>
<path d="M3626 8259 c-52 -41 -24 -119 43 -119 47 0 74 27 73 72 -2 61 -65 87
-116 47z m86 -34 c10 -22 9 -29 -10 -47 -18 -19 -25 -20 -47 -10 -16 8 -25 20
-25 35 0 50 62 66 82 22z"/>
<path d="M3873 8268 c2 -7 12 -39 21 -70 20 -71 39 -75 56 -10 13 50 14 49 40
-20 16 -46 34 -33 53 39 9 36 15 68 13 71 -11 11 -26 -12 -32 -49 -4 -21 -10
-39 -14 -39 -4 0 -13 21 -19 46 -14 56 -31 54 -50 -6 -15 -47 -21 -43 -35 23
-4 15 -13 27 -22 27 -9 0 -14 -6 -11 -12z"/>
</g>
</svg>
